<svg width="21" height="21" viewBox="0 0 21 21" fill="none" xmlns="http://www.w3.org/2000/svg">
<path d="M2.5 0C1.12524 0 0 1.08023 0 2.4V17.76C0 19.0798 1.12524 20.16 2.5 20.16H10.916C10.97 20.1686 11.0251 20.1686 11.0791 20.16H13.916C13.97 20.1686 14.0251 20.1686 14.0791 20.16H18.5C19.8748 20.16 21 19.0798 21 17.76V2.4C21 1.08023 19.8748 0 18.5 0H2.5ZM2.5 0.96H18.5C19.3342 0.96 20 1.59913 20 2.4V17.76C20 18.5609 19.3342 19.2 18.5 19.2H14.5V12.48H16.4102L17.1104 9.12H14.5V8.16C14.5 7.8924 14.5265 7.87149 14.6201 7.81313C14.7137 7.75476 15.0029 7.68 15.5 7.68H17V4.97719L16.7148 4.84688C16.7148 4.84688 15.5663 4.32 14 4.32C12.875 4.32 11.9508 4.7503 11.3594 5.46C10.768 6.1697 10.5 7.12 10.5 8.16V9.12H9V12.48H10.5V19.2H2.5C1.66576 19.2 1 18.5609 1 17.76V2.4C1 1.59913 1.66576 0.96 2.5 0.96ZM14 5.28C15.0395 5.28 15.6937 5.50006 16 5.61656V6.72H15.5C14.9246 6.72 14.4635 6.7657 14.0752 7.00781C13.6869 7.24993 13.5 7.70952 13.5 8.16V10.08H15.8896L15.5898 11.52H13.5V19.2H11.5V11.52H10V10.08H11.5V8.16C11.5 7.28 11.732 6.5503 12.1406 6.06C12.5492 5.5697 13.125 5.28 14 5.28Z" fill="black"/>
</svg>
