<svg width="22" height="22" viewBox="0 0 22 22" fill="none" xmlns="http://www.w3.org/2000/svg">
<path d="M6.5 0C2.91624 0 0 2.79959 0 6.24V14.88C0 18.3204 2.91624 21.12 6.5 21.12H15.5C19.0838 21.12 22 18.3204 22 14.88V6.24C22 2.79959 19.0838 0 15.5 0H6.5ZM6.5 0.96H15.5C18.5432 0.96 21 3.31849 21 6.24V14.88C21 17.8015 18.5432 20.16 15.5 20.16H6.5C3.45676 20.16 1 17.8015 1 14.88V6.24C1 3.31849 3.45676 0.96 6.5 0.96ZM17 3.84C16.7348 3.84 16.4804 3.94114 16.2929 4.12118C16.1054 4.30121 16 4.54539 16 4.8C16 5.05461 16.1054 5.29879 16.2929 5.47882C16.4804 5.65886 16.7348 5.76 17 5.76C17.2652 5.76 17.5196 5.65886 17.7071 5.47882C17.8946 5.29879 18 5.05461 18 4.8C18 4.54539 17.8946 4.30121 17.7071 4.12118C17.5196 3.94114 17.2652 3.84 17 3.84ZM11 5.28C7.96836 5.28 5.5 7.64962 5.5 10.56C5.5 13.4704 7.96836 15.84 11 15.84C14.0316 15.84 16.5 13.4704 16.5 10.56C16.5 7.64962 14.0316 5.28 11 5.28ZM11 6.24C13.4912 6.24 15.5 8.16844 15.5 10.56C15.5 12.9516 13.4912 14.88 11 14.88C8.5088 14.88 6.5 12.9516 6.5 10.56C6.5 8.16844 8.5088 6.24 11 6.24Z" fill="black"/>
</svg>
