<svg width="25" height="24" viewBox="0 0 25 24" fill="none" xmlns="http://www.w3.org/2000/svg">
<path d="M4.5 1.92004C3.12524 1.92004 2 3.00028 2 4.32004V19.68C2 20.9998 3.12524 22.08 4.5 22.08H20.5C21.8748 22.08 23 20.9998 23 19.68V4.32004C23 3.00028 21.8748 1.92004 20.5 1.92004H4.5ZM4.5 2.88004H20.5C21.3342 2.88004 22 3.51917 22 4.32004V19.68C22 20.4809 21.3342 21.12 20.5 21.12H4.5C3.66576 21.12 3 20.4809 3 19.68V4.32004C3 3.51917 3.66576 2.88004 4.5 2.88004ZM7 5.28567C6.45239 5.28567 5.95961 5.4428 5.59473 5.73754C5.22984 6.03229 5.00586 6.47261 5.00586 6.94411C5.00586 7.84035 5.81564 8.53906 6.8457 8.60817L6.84766 8.60911C6.89674 8.62517 6.94815 8.63371 7 8.63442C8.13651 8.63442 8.99414 7.87016 8.99414 6.94411C8.99405 6.93566 8.99372 6.92722 8.99316 6.91879C8.94229 6.00668 8.09522 5.28567 7 5.28567ZM7 6.23442C7.69612 6.23442 7.97098 6.53286 8.00098 6.95629C7.9949 7.36729 7.73005 7.68567 7 7.68567C6.3073 7.68567 5.99414 7.34511 5.99414 6.94411C5.99414 6.7436 6.07035 6.59251 6.23047 6.46317C6.39059 6.33383 6.64761 6.23442 7 6.23442ZM5.5 9.12004C5.3674 9.12006 5.24023 9.17063 5.14646 9.26065C5.0527 9.35066 5.00001 9.47274 5 9.60004V18.72C5.00001 18.8473 5.0527 18.9694 5.14646 19.0594C5.24023 19.1495 5.3674 19.2 5.5 19.2H8.5C8.6326 19.2 8.75977 19.1495 8.85354 19.0594C8.9473 18.9694 8.99999 18.8473 9 18.72V15.9047V9.60004C8.99999 9.47274 8.9473 9.35066 8.85354 9.26065C8.75977 9.17063 8.6326 9.12006 8.5 9.12004H5.5ZM10 9.12004C9.8674 9.12006 9.74023 9.17063 9.64646 9.26065C9.5527 9.35066 9.50001 9.47274 9.5 9.60004V18.72C9.50001 18.8473 9.5527 18.9694 9.64646 19.0594C9.74023 19.1495 9.8674 19.2 10 19.2H13C13.1326 19.2 13.2598 19.1495 13.3535 19.0594C13.4473 18.9694 13.5 18.8473 13.5 18.72V13.92C13.5 13.5218 13.6132 13.1257 13.8125 12.8663C14.0118 12.6069 14.2632 12.4513 14.7412 12.4594C15.2341 12.4676 15.495 12.6296 15.6924 12.8841C15.8898 13.1386 16 13.52 16 13.92V18.72C16 18.8473 16.0527 18.9694 16.1465 19.0594C16.2402 19.1495 16.3674 19.2 16.5 19.2H19.5C19.6326 19.2 19.7598 19.1495 19.8535 19.0594C19.9473 18.9694 20 18.8473 20 18.72V13.5657C20 12.1441 19.5614 11.0181 18.8096 10.2563C18.0577 9.49446 17.0121 9.12004 15.9062 9.12004C14.8552 9.12004 14.0554 9.45839 13.5 9.80348V9.60004C13.5 9.47274 13.4473 9.35066 13.3535 9.26065C13.2598 9.17063 13.1326 9.12006 13 9.12004H10ZM6 10.08H8V15.9047V18.24H6V10.08ZM10.5 10.08H12.5V10.8291C12.5 10.9298 12.533 11.0278 12.5943 11.1095C12.6556 11.1912 12.742 11.2523 12.8415 11.2842C12.9409 11.3162 13.0483 11.3173 13.1484 11.2874C13.2485 11.2576 13.3363 11.1982 13.3994 11.1179C13.3994 11.1179 14.1846 10.08 15.9062 10.08C16.7829 10.08 17.5347 10.3597 18.084 10.9163C18.6333 11.4729 19 12.3304 19 13.5657V18.24H17V13.92C17 13.36 16.8602 12.7811 16.4951 12.3104C16.13 11.8397 15.5159 11.5119 14.7588 11.4994C13.9978 11.4864 13.3738 11.821 13.0078 12.2972C12.6419 12.7735 12.5 13.3583 12.5 13.92V18.24H10.5V10.08Z" fill="black"/>
</svg>
